<svg xmlns="http://www.w3.org/2000/svg" enable-background="new 0 0 64 64" viewBox="0 0 64 64">
  <g transform="translate(232 228)" fill="#fe9526" class="color000000 svgShape">
    <polygon fill="#0094ff" points="-207.5 -205.1 -204.5 -205.1 -204.5 -181.1 -207.5 -181.1" class="color134563 svgShape"></polygon>
    <polygon fill="#0094ff" points="-201.5 -205.1 -198.5 -205.1 -198.5 -181.1 -201.5 -181.1" class="color134563 svgShape"></polygon>
    <polygon fill="#0094ff" points="-195.5 -205.1 -192.5 -205.1 -192.5 -181.1 -195.5 -181.1" class="color134563 svgShape"></polygon>
    <polygon fill="#0094ff" points="-219.5 -214.1 -180.5 -214.1 -180.5 -211.1 -219.5 -211.1" class="color134563 svgShape"></polygon>
    <path fill="#0094ff" d="M-192.6-212.6h-2.8v-3c0-0.9-0.7-1.6-1.6-1.6h-6c-0.9,0-1.6,0.7-1.6,1.6v3h-2.8v-3     c0-2.4,2-4.4,4.4-4.4h6c2.4,0,4.4,2,4.4,4.4V-212.6" class="color134563 svgShape"></path>
    <path fill="#0094ff" d="M-191-172.1h-18c-2.4,0-4.5-2-4.7-4.4l-2.8-36l3-0.2l2.8,36c0.1,0.9,0.9,1.6,1.7,1.6h18     c0.9,0,1.7-0.8,1.7-1.6l2.8-36l3,0.2l-2.8,36C-186.5-174-188.6-172.1-191-172.1" class="color134563 svgShape"></path>
  </g>
</svg>