<svg xmlns="http://www.w3.org/2000/svg" enable-background="new 0 0 64 64" viewBox="0 0 64 64"><path fill="#2a2f63" d="M55,0H9C8.97,0,8.93,0,8.9,0.01c-0.05,0-0.1,0-0.14,0.01C8.7,0.03,8.65,0.05,8.61,0.06
		C8.57,0.07,8.53,0.08,8.49,0.1C8.44,0.11,8.4,0.13,8.35,0.16c-0.04,0.02-0.07,0.03-0.1,0.06C8.21,0.25,8.16,0.28,8.12,0.31
		c-0.03,0.03-0.07,0.05-0.1,0.08c-0.04,0.04-0.07,0.08-0.1,0.11C7.9,0.53,7.87,0.55,7.84,0.59C7.81,0.63,7.79,0.68,7.77,0.72
		C7.75,0.75,7.72,0.79,7.7,0.83C7.68,0.88,7.66,0.94,7.64,0.98C7.63,1.01,7.62,1.04,7.61,1.07V1.1C7.59,1.16,7.59,1.2,7.58,1.25
		c0,0.05-0.01,0.1-0.01,0.14c0,0.01-0.01,0.02-0.01,0.04v61.13c0,0.01,0.01,0.03,0.01,0.04c0,0.06,0.01,0.11,0.01,0.15
		c0.01,0.05,0.02,0.1,0.03,0.14c0.01,0.02,0.01,0.03,0.01,0.05c0,0.01,0.01,0.03,0.02,0.04c0.04,0.13,0.1,0.27,0.18,0.38
		c0,0.01,0.01,0.02,0.02,0.03c0.08,0.1,0.17,0.2,0.27,0.28c0.02,0.02,0.04,0.03,0.06,0.05c0.1,0.08,0.22,0.13,0.34,0.18
		c0.03,0.01,0.06,0.02,0.09,0.03c0.12,0.04,0.26,0.06,0.39,0.06C9,63.99,9,64,9,64h46c0.78,0,1.43-0.65,1.43-1.43V1.43
		C56.43,0.64,55.79,0,55,0z M10.43,3.28l29.89,7.71v41.32l-29.89,8.37V3.28z M53.57,61.13H19.43l22.71-6.36
		c0.62-0.17,1.05-0.74,1.05-1.38V9.87c0-0.65-0.44-1.22-1.08-1.39L20.3,2.87h33.27V61.13z"/><path fill="#edeced" d="M53.57,2.87v58.27H19.43l22.71-6.36c0.62-0.17,1.05-0.74,1.05-1.38V9.87c0-0.65-0.44-1.22-1.08-1.39L20.3,2.87
		H53.57z"/><path fill="#9fd1f0" d="M10.43,3.28v57.4l29.89-8.37V10.98L10.43,3.28z M36.35,34.18c0,0.79-0.64,1.43-1.43,1.43
		c-0.79,0-1.43-0.64-1.43-1.43v-5.09c0-0.79,0.64-1.43,1.43-1.43c0.79,0,1.43,0.64,1.43,1.43V34.18z"/><path fill="#2a2f63" d="M36.35,29.09v5.09c0,0.79-0.64,1.43-1.43,1.43c-0.79,0-1.43-0.64-1.43-1.43v-5.09c0-0.79,0.64-1.43,1.43-1.43
		C35.71,27.65,36.35,28.29,36.35,29.09z"/></svg>